<svg width="20" height="24" viewBox="0 0 20 24" fill="none" xmlns="http://www.w3.org/2000/svg">
<path d="M10.7998 18.3C10.7998 17.9022 10.9578 17.5207 11.2391 17.2394C11.5204 16.9581 11.902 16.8 12.2998 16.8C12.6976 16.8 13.0792 16.9581 13.3605 17.2394C13.6418 17.5207 13.7998 17.9022 13.7998 18.3C13.7998 18.6979 13.6418 19.0794 13.3605 19.3607C13.0792 19.642 12.6976 19.8 12.2998 19.8C11.902 19.8 11.5204 19.642 11.2391 19.3607C10.9578 19.0794 10.7998 18.6979 10.7998 18.3ZM10.7998 12.3C10.7998 11.9022 10.9578 11.5207 11.2391 11.2394C11.5204 10.9581 11.902 10.8 12.2998 10.8C12.6976 10.8 13.0792 10.9581 13.3605 11.2394C13.6418 11.5207 13.7998 11.9022 13.7998 12.3C13.7998 12.6979 13.6418 13.0794 13.3605 13.3607C13.0792 13.642 12.6976 13.8 12.2998 13.8C11.902 13.8 11.5204 13.642 11.2391 13.3607C10.9578 13.0794 10.7998 12.6979 10.7998 12.3ZM10.7998 6.30005C10.7998 5.90222 10.9578 5.52069 11.2391 5.23939C11.5204 4.95808 11.902 4.80005 12.2998 4.80005C12.6976 4.80005 13.0792 4.95808 13.3605 5.23939C13.6418 5.52069 13.7998 5.90222 13.7998 6.30005C13.7998 6.69787 13.6418 7.0794 13.3605 7.36071C13.0792 7.64201 12.6976 7.80005 12.2998 7.80005C11.902 7.80005 11.5204 7.64201 11.2391 7.36071C10.9578 7.0794 10.7998 6.69787 10.7998 6.30005Z" fill="white"/>
</svg>
