<svg width="16" height="18" viewBox="0 0 16 18" fill="none" xmlns="http://www.w3.org/2000/svg">
<path d="M13.549 9.4707H2.56863C1.7023 9.4707 1 10.0836 1 10.8397V15.6311C1 16.3872 1.7023 17.0001 2.56863 17.0001H13.549C14.4153 17.0001 15.1176 16.3872 15.1176 15.6311V10.8397C15.1176 10.0836 14.4153 9.4707 13.549 9.4707Z" stroke="white" stroke-width="1.6" stroke-linecap="round" stroke-linejoin="round"/>
<path d="M3.82324 9.47059V5.70588C3.82324 4.4578 4.26946 3.26085 5.06373 2.37832C5.858 1.4958 6.93527 1 8.05854 1C9.18181 1 10.2591 1.4958 11.0533 2.37832C11.8476 3.26085 12.2938 4.4578 12.2938 5.70588V9.47059" stroke="white" stroke-width="1.6" stroke-linecap="round" stroke-linejoin="round"/>
</svg>
