<svg width="25" height="21" viewBox="0 0 25 21" fill="none" xmlns="http://www.w3.org/2000/svg">
<path d="M17.7273 20.0001V17.889C17.7273 16.7692 17.2867 15.6952 16.5024 14.9034C15.7182 14.1116 14.6545 13.6667 13.5455 13.6667H5.18182C4.07273 13.6667 3.00907 14.1116 2.22483 14.9034C1.44058 15.6952 1 16.7692 1 17.889V20.0001" stroke="white" stroke-width="2" stroke-linecap="round" stroke-linejoin="round"/>
<path d="M9.36346 9.44444C11.673 9.44444 13.5453 7.55409 13.5453 5.22222C13.5453 2.89035 11.673 1 9.36346 1C7.0539 1 5.18164 2.89035 5.18164 5.22222C5.18164 7.55409 7.0539 9.44444 9.36346 9.44444Z" stroke="white" stroke-width="2" stroke-linecap="round" stroke-linejoin="round"/>
<path d="M24.0001 19.9998V17.8887C23.9994 16.9532 23.6911 16.0444 23.1234 15.305C22.5557 14.5657 21.7609 14.0376 20.8638 13.8037" stroke="white" stroke-width="2" stroke-linecap="round" stroke-linejoin="round"/>
<path d="M16.6816 1.13721C17.5812 1.36975 18.3785 1.89795 18.9478 2.63853C19.5172 3.37912 19.8262 4.28997 19.8262 5.22748C19.8262 6.165 19.5172 7.07584 18.9478 7.81643C18.3785 8.55702 17.5812 9.08522 16.6816 9.31776" stroke="white" stroke-width="2" stroke-linecap="round" stroke-linejoin="round"/>
</svg>
