<svg width="24" height="20" viewBox="0 0 24 20" fill="none" xmlns="http://www.w3.org/2000/svg">
<path d="M9 9C11.2091 9 13 7.20914 13 5C13 2.79086 11.2091 1 9 1C6.79086 1 5 2.79086 5 5C5 7.20914 6.79086 9 9 9Z" fill="white" stroke="white" stroke-width="2" stroke-linecap="round" stroke-linejoin="round"/>
<path d="M23 18.9999V16.9999C22.9993 16.1136 22.7044 15.2527 22.1614 14.5522C21.6184 13.8517 20.8581 13.3515 20 13.1299" stroke="white" stroke-width="2" stroke-linecap="round" stroke-linejoin="round"/>
<path d="M16 1.12988C16.8604 1.35018 17.623 1.85058 18.1676 2.55219C18.7122 3.2538 19.0078 4.11671 19.0078 5.00488C19.0078 5.89305 18.7122 6.75596 18.1676 7.45757C17.623 8.15918 16.8604 8.65958 16 8.87988" stroke="white" stroke-width="2" stroke-linecap="round" stroke-linejoin="round"/>
<path fill-rule="evenodd" clip-rule="evenodd" d="M5 12C3.67392 12 2.40215 12.5268 1.46447 13.4645C0.526784 14.4021 0 15.6739 0 17V19C0 19.5523 0.447715 20 1 20H17C17.5523 20 18 19.5523 18 19V17C18 15.6739 17.4732 14.4021 16.5355 13.4645C15.5979 12.5268 14.3261 12 13 12H5Z" fill="white"/>
</svg>
