<svg width="28" height="24" viewBox="0 0 28 24" fill="none" xmlns="http://www.w3.org/2000/svg">
<path d="M19.9054 10.9004C19.9086 12.1515 19.6163 13.3856 19.0523 14.5023C18.3835 15.8404 17.3554 16.966 16.083 17.7528C14.8107 18.5396 13.3445 18.9567 11.8485 18.9573C10.5974 18.9605 9.36329 18.6682 8.24659 18.1042L2.84375 19.9051L4.6447 14.5023C4.08065 13.3856 3.78836 12.1515 3.79162 10.9004C3.7922 9.40444 4.20926 7.93818 4.99609 6.66586C5.78292 5.39353 6.90845 4.3654 8.24659 3.69661C9.36329 3.13257 10.5974 2.84027 11.8485 2.84353H12.3224C14.2981 2.95253 16.1642 3.78643 17.5633 5.18558C18.9625 6.58472 19.7964 8.45079 19.9054 10.4265V10.9004Z" fill="#3F3F3F" stroke="white" stroke-width="2" stroke-linecap="round" stroke-linejoin="round"/>
<path d="M13 14.7864C12.9973 15.813 13.2372 16.8257 13.7 17.742C14.2488 18.84 15.0924 19.7635 16.1364 20.4092C17.1805 21.0548 18.3836 21.397 19.6111 21.3975C20.6377 21.4002 21.6504 21.1603 22.5667 20.6975L27 22.1753L25.5222 17.742C25.9851 16.8257 26.2249 15.813 26.2222 14.7864C26.2217 13.5589 25.8795 12.3557 25.2339 11.3117C24.5883 10.2677 23.6647 9.42409 22.5667 8.87531C21.6504 8.41248 20.6377 8.17264 19.6111 8.17532H19.2222C17.6011 8.26475 16.0699 8.94902 14.9218 10.0971C13.7737 11.2452 13.0895 12.7764 13 14.3975V14.7864Z" fill="#3F3F3F" stroke="white" stroke-width="2" stroke-linecap="round" stroke-linejoin="round"/>
</svg>
