<svg width="12" height="12" viewBox="0 0 12 12" fill="none" xmlns="http://www.w3.org/2000/svg">
<path d="M8 10.5V9.5C8 8.96957 7.78929 8.46086 7.41421 8.08579C7.03914 7.71071 6.53043 7.5 6 7.5H2.5C1.96957 7.5 1.46086 7.71071 1.08579 8.08579C0.710714 8.46086 0.5 8.96957 0.5 9.5V10.5" stroke="#939393" stroke-linecap="round" stroke-linejoin="round"/>
<path d="M4.25 5.5C5.35457 5.5 6.25 4.60457 6.25 3.5C6.25 2.39543 5.35457 1.5 4.25 1.5C3.14543 1.5 2.25 2.39543 2.25 3.5C2.25 4.60457 3.14543 5.5 4.25 5.5Z" stroke="#939393" stroke-linecap="round" stroke-linejoin="round"/>
<path d="M11.5 5.5H8.5" stroke="#939393" stroke-linecap="round" stroke-linejoin="round"/>
</svg>
