<svg width="41" height="41" viewBox="0 0 41 41" fill="none" xmlns="http://www.w3.org/2000/svg">
<rect width="40.4185" height="40.4185" rx="20.2092" fill="#D9D9D9" fill-opacity="0.2"/>
<path d="M28.5171 29.5328V27.5012C28.5171 26.4236 28.089 25.3901 27.327 24.6281C26.565 23.8661 25.5315 23.438 24.4539 23.438H16.3274C15.2498 23.438 14.2163 23.8661 13.4543 24.6281C12.6922 25.3901 12.2642 26.4236 12.2642 27.5012V29.5328" stroke="black" stroke-width="2" stroke-linecap="round" stroke-linejoin="round"/>
<path d="M20.3906 19.3748C22.6347 19.3748 24.4539 17.5556 24.4539 15.3115C24.4539 13.0675 22.6347 11.2483 20.3906 11.2483C18.1466 11.2483 16.3274 13.0675 16.3274 15.3115C16.3274 17.5556 18.1466 19.3748 20.3906 19.3748Z" stroke="black" stroke-width="2" stroke-linecap="round" stroke-linejoin="round"/>
<path d="M28.5171 29.5328V27.5012C28.5171 26.4236 28.089 25.3901 27.327 24.6281C26.565 23.8661 25.5315 23.438 24.4539 23.438H16.3274C15.2498 23.438 14.2163 23.8661 13.4543 24.6281C12.6922 25.3901 12.2642 26.4236 12.2642 27.5012V29.5328" stroke="white" stroke-opacity="0.7" stroke-width="2" stroke-linecap="round" stroke-linejoin="round"/>
<path d="M20.3906 19.3748C22.6347 19.3748 24.4539 17.5556 24.4539 15.3115C24.4539 13.0675 22.6347 11.2483 20.3906 11.2483C18.1466 11.2483 16.3274 13.0675 16.3274 15.3115C16.3274 17.5556 18.1466 19.3748 20.3906 19.3748Z" stroke="white" stroke-opacity="0.7" stroke-width="2" stroke-linecap="round" stroke-linejoin="round"/>
</svg>
