<svg width="20" height="20" viewBox="0 0 20 20" fill="none" xmlns="http://www.w3.org/2000/svg">
<path d="M16.1873 3.81283C15.3762 2.99375 14.4113 2.343 13.348 1.89795C12.2847 1.45291 11.1439 1.22235 9.99126 1.21951C8.83858 1.21667 7.69669 1.44162 6.6312 1.88142C5.56571 2.32123 4.59762 2.96722 3.78254 3.7823C2.96747 4.59737 2.32147 5.56546 1.88167 6.63095C1.44186 7.69644 1.21692 8.83833 1.21975 9.99102C1.22259 11.1437 1.45315 12.2845 1.8982 13.3478C2.34324 14.4111 2.994 15.376 3.81307 16.187C4.62413 17.0061 5.58903 17.6569 6.65234 18.1019C7.71565 18.547 8.85642 18.7775 10.0091 18.7804C11.1618 18.7832 12.3037 18.5583 13.3692 18.1185C14.4347 17.6786 15.4027 17.0327 16.2178 16.2176C17.0329 15.4025 17.6789 14.4344 18.1187 13.3689C18.5585 12.3034 18.7834 11.1615 18.7806 10.0089C18.7778 8.85617 18.5472 7.7154 18.1022 6.65209C17.6571 5.58878 17.0064 4.62388 16.1873 3.81283ZM16.8752 9.99994C16.8766 11.4994 16.3853 12.9578 15.4767 14.1507L5.8494 4.52338C7.04229 3.61482 8.5007 3.12347 10.0002 3.12494C13.7912 3.12494 16.8752 6.21088 16.8752 9.99994ZM3.12518 9.99994C3.12372 8.50046 3.61507 7.04205 4.52362 5.84916L14.151 15.4765C12.9581 16.3851 11.4997 16.8764 10.0002 16.8749C6.21112 16.8749 3.12518 13.791 3.12518 9.99994Z" fill="#98989E"/>
</svg>
