<svg width="20" height="20" viewBox="0 0 20 20" fill="none" xmlns="http://www.w3.org/2000/svg">
<path d="M10.6619 0C14.2463 0 17.1529 2.566 17.1529 5.732C17.152 6.56421 16.9478 7.38607 16.5548 8.13935C16.1618 8.89264 15.5895 9.55892 14.8785 10.091C15.1829 10.224 15.4596 10.358 15.7096 10.493C16.2485 10.783 16.8074 11.143 17.3873 11.572C17.4656 11.6291 17.5303 11.6998 17.5778 11.7798C17.6252 11.8598 17.6543 11.9476 17.6634 12.0379C17.6725 12.1283 17.6615 12.2193 17.6308 12.3057C17.6002 12.3921 17.5507 12.4721 17.4851 12.541C17.3508 12.6814 17.1608 12.769 16.9557 12.7851C16.7506 12.8012 16.5466 12.7444 16.3874 12.627C15.918 12.2745 15.4203 11.9536 14.8985 11.667C14.3895 11.4005 13.8609 11.1656 13.3163 10.964C12.4795 11.2952 11.575 11.4655 10.6608 11.464C9.65361 11.4656 8.65948 11.2586 7.75535 10.859L7.70869 10.879C5.51208 11.635 3.90878 12.753 2.87548 14.237C1.83661 15.726 1.41218 17.39 1.60218 19.251C1.61038 19.3418 1.59859 19.4331 1.56749 19.5198C1.53639 19.6064 1.48658 19.6867 1.42093 19.756C1.35528 19.8253 1.27508 19.8823 1.18492 19.9237C1.09476 19.965 0.996413 19.9899 0.895527 19.997C0.691705 20.0149 0.488314 19.9594 0.329855 19.8426C0.171395 19.7259 0.0707692 19.5574 0.0499924 19.374C-0.168891 17.222 0.331096 15.261 1.54773 13.516C2.61882 11.98 4.19211 10.786 6.24762 9.935C5.5939 9.40421 5.0712 8.75588 4.7133 8.0319C4.35541 7.30792 4.17028 6.5244 4.16989 5.732C4.16989 2.566 7.07759 0 10.6619 0ZM18.6873 14.24C18.8319 14.1115 19.0267 14.0391 19.2299 14.0386C19.4332 14.038 19.6285 14.1093 19.7739 14.237C20.0739 14.503 20.0739 14.935 19.7762 15.202L18.4518 16.381L19.7762 17.561C19.8472 17.624 19.9036 17.6991 19.9421 17.7819C19.9805 17.8648 20.0002 17.9537 20 18.0434C19.9998 18.1332 19.9797 18.222 19.9409 18.3047C19.9021 18.3874 19.8453 18.4623 19.7739 18.525C19.6288 18.653 19.4336 18.7246 19.2304 18.7244C19.0272 18.7242 18.8322 18.6523 18.6873 18.524L17.3684 17.347L16.0496 18.524C15.9201 18.6385 15.7502 18.7085 15.5693 18.7219C15.3884 18.7352 15.208 18.691 15.0596 18.597L14.9641 18.525C14.8927 18.4623 14.8359 18.3874 14.7971 18.3047C14.7583 18.222 14.7382 18.1332 14.738 18.0434C14.7378 17.9537 14.7575 17.8648 14.7959 17.7819C14.8344 17.6991 14.8908 17.624 14.9618 17.561L16.284 16.381L14.9618 15.201C14.8908 15.138 14.8344 15.0629 14.7959 14.9801C14.7575 14.8973 14.7378 14.8083 14.738 14.7186C14.7382 14.6288 14.7583 14.54 14.7971 14.4573C14.8359 14.3746 14.8927 14.2997 14.9641 14.237C15.1093 14.1094 15.3043 14.0382 15.5073 14.0386C15.7102 14.0389 15.9049 14.1109 16.0496 14.239L17.3684 15.415L18.6873 14.24ZM10.6619 1.375C7.93646 1.375 5.72874 3.325 5.72874 5.731C5.72874 8.137 7.93646 10.088 10.6619 10.088C13.3863 10.088 15.5952 8.138 15.5952 5.731C15.5952 3.325 13.3863 1.375 10.6619 1.375Z" fill="#98989E"/>
</svg>
