<svg width="20" height="20" viewBox="0 0 20 20" fill="none" xmlns="http://www.w3.org/2000/svg">
<path d="M13.332 9.9987C15.3104 10.9845 16.6654 13.0404 16.6654 15.832V19.1654H3.33203V15.832C3.33203 13.037 4.6912 10.9779 6.66536 9.9987M14.9987 5.83203C14.9987 6.48864 14.8694 7.13882 14.6181 7.74545C14.3668 8.35208 13.9985 8.90327 13.5342 9.36756C13.0699 9.83186 12.5187 10.2002 11.9121 10.4514C11.3055 10.7027 10.6553 10.832 9.9987 10.832C8.67262 10.832 7.40085 10.3052 6.46316 9.36756C5.52548 8.42988 4.9987 7.15811 4.9987 5.83203M14.9987 5.83203C14.9987 5.17542 14.8694 4.52524 14.6181 3.91861C14.3668 3.31199 13.9985 2.76079 13.5342 2.2965C13.0699 1.8322 12.5187 1.46391 11.9121 1.21263C11.3055 0.96136 10.6553 0.832031 9.9987 0.832031C8.67262 0.832031 7.40085 1.35882 6.46316 2.2965C5.52548 3.23418 4.9987 4.50595 4.9987 5.83203M14.9987 5.83203C13.7487 5.83203 12.4987 6.13203 10.832 4.16536C9.16536 6.13203 7.08203 6.66536 4.9987 5.83203M5.83203 10.832L10.0195 15.2129L14.1654 10.832M9.9987 14.9987V19.1654" stroke="#98989E" stroke-width="1.66667"/>
</svg>
