<svg width="69" height="69" viewBox="0 0 69 69" fill="none" xmlns="http://www.w3.org/2000/svg">
<rect width="69" height="69" fill="#D9D9D9" fill-opacity="0.2"/>
<path d="M48.6826 49.4167V45.9484C48.6826 44.1087 47.9517 42.3444 46.6509 41.0436C45.3501 39.7427 43.5857 39.0119 41.746 39.0119H27.873C26.0334 39.0119 24.269 39.7427 22.9682 41.0436C21.6673 42.3444 20.9365 44.1087 20.9365 45.9484V49.4167" stroke="black" stroke-width="2" stroke-linecap="round" stroke-linejoin="round"/>
<path d="M34.8095 32.0754C38.6405 32.0754 41.746 28.9698 41.746 25.1389C41.746 21.308 38.6405 18.2024 34.8095 18.2024C30.9786 18.2024 27.873 21.308 27.873 25.1389C27.873 28.9698 30.9786 32.0754 34.8095 32.0754Z" stroke="black" stroke-width="2" stroke-linecap="round" stroke-linejoin="round"/>
<path d="M48.6826 49.4167V45.9484C48.6826 44.1087 47.9517 42.3444 46.6509 41.0436C45.3501 39.7427 43.5857 39.0119 41.746 39.0119H27.873C26.0334 39.0119 24.269 39.7427 22.9682 41.0436C21.6673 42.3444 20.9365 44.1087 20.9365 45.9484V49.4167" stroke="white" stroke-opacity="0.7" stroke-width="2" stroke-linecap="round" stroke-linejoin="round"/>
<path d="M34.8095 32.0754C38.6405 32.0754 41.746 28.9698 41.746 25.1389C41.746 21.308 38.6405 18.2024 34.8095 18.2024C30.9786 18.2024 27.873 21.308 27.873 25.1389C27.873 28.9698 30.9786 32.0754 34.8095 32.0754Z" stroke="white" stroke-opacity="0.7" stroke-width="2" stroke-linecap="round" stroke-linejoin="round"/>
</svg>
