<svg width="248" height="45" viewBox="0 0 248 45" fill="none" xmlns="http://www.w3.org/2000/svg">
<path d="M0.125 0.999999H12.125C14.2417 0.999999 16.15 1.375 17.85 2.125C19.55 2.85833 20.9 3.98333 21.9 5.5C22.9167 7 23.425 8.88333 23.425 11.15C23.425 13.4 22.9167 15.3167 21.9 16.9C20.9 18.4667 19.55 19.6667 17.85 20.5C16.15 21.3167 14.2417 21.725 12.125 21.725H7.6V34H0.125V0.999999ZM7.6 15.825H10.05C11.0667 15.825 11.975 15.675 12.775 15.375C13.5917 15.075 14.2417 14.6 14.725 13.95C15.2083 13.2833 15.45 12.4083 15.45 11.325C15.45 10.225 15.2083 9.35833 14.725 8.725C14.2417 8.075 13.5917 7.60833 12.775 7.325C11.975 7.04166 11.0667 6.9 10.05 6.9H7.6V15.825ZM36.2824 34.6C34.0324 34.6 32.0324 34.1417 30.2824 33.225C28.5491 32.2917 27.1824 31.0167 26.1824 29.4C25.1991 27.7667 24.7074 25.9 24.7074 23.8C24.7074 21.7 25.1991 19.8333 26.1824 18.2C27.1824 16.55 28.5491 15.25 30.2824 14.3C32.0324 13.35 34.0324 12.875 36.2824 12.875C38.5324 12.875 40.5158 13.35 42.2324 14.3C43.9491 15.25 45.2908 16.55 46.2574 18.2C47.2241 19.8333 47.7074 21.7 47.7074 23.8C47.7074 25.9 47.2241 27.7667 46.2574 29.4C45.2908 31.0167 43.9491 32.2917 42.2324 33.225C40.5158 34.1417 38.5324 34.6 36.2824 34.6ZM36.2824 28.35C37.1491 28.35 37.8991 28.1583 38.5324 27.775C39.1658 27.3917 39.6574 26.85 40.0074 26.15C40.3574 25.45 40.5324 24.6583 40.5324 23.775C40.5324 22.875 40.3574 22.075 40.0074 21.375C39.6574 20.675 39.1658 20.125 38.5324 19.725C37.8991 19.325 37.1491 19.125 36.2824 19.125C35.4158 19.125 34.6574 19.325 34.0074 19.725C33.3741 20.125 32.8741 20.675 32.5074 21.375C32.1574 22.075 31.9824 22.875 31.9824 23.775C31.9824 24.6583 32.1574 25.45 32.5074 26.15C32.8741 26.85 33.3741 27.3917 34.0074 27.775C34.6574 28.1583 35.4158 28.35 36.2824 28.35ZM65.7875 12.875C67.2208 12.875 68.6208 13.1667 69.9875 13.75C71.3542 14.3333 72.4792 15.2583 73.3625 16.525C74.2458 17.775 74.6875 19.425 74.6875 21.475V34H67.0625V22.725C67.0625 21.2583 66.7125 20.1583 66.0125 19.425C65.3125 18.675 64.3958 18.3 63.2625 18.3C62.5125 18.3 61.8042 18.5 61.1375 18.9C60.4875 19.2833 59.9542 19.8333 59.5375 20.55C59.1375 21.25 58.9375 22.0583 58.9375 22.975V34H51.3375V13.475H58.9375V16.5C59.1375 15.95 59.5542 15.4 60.1875 14.85C60.8375 14.2833 61.6458 13.8167 62.6125 13.45C63.5958 13.0667 64.6542 12.875 65.7875 12.875ZM89.8789 44.975C88.4456 44.975 87.0206 44.85 85.6039 44.6C84.2039 44.35 82.8956 43.925 81.6789 43.325C80.4622 42.725 79.4372 41.9 78.6039 40.85L83.0539 36.225C83.4372 36.675 83.9039 37.1167 84.4539 37.55C85.0206 37.9833 85.7122 38.3417 86.5289 38.625C87.3622 38.9083 88.3706 39.05 89.5539 39.05C90.6539 39.05 91.6122 38.8583 92.4289 38.475C93.2456 38.0917 93.8789 37.5333 94.3289 36.8C94.7956 36.0667 95.0289 35.175 95.0289 34.125V33.625H102.504V34.575C102.504 36.8417 101.937 38.75 100.804 40.3C99.6872 41.85 98.1789 43.0167 96.2789 43.8C94.3789 44.5833 92.2456 44.975 89.8789 44.975ZM95.0289 34V30.675C94.8789 31.0083 94.4956 31.4917 93.8789 32.125C93.2789 32.7583 92.4789 33.3333 91.4789 33.85C90.4789 34.35 89.3122 34.6 87.9789 34.6C85.9789 34.6 84.2289 34.1167 82.7289 33.15C81.2289 32.1667 80.0622 30.8583 79.2289 29.225C78.3956 27.575 77.9789 25.75 77.9789 23.75C77.9789 21.75 78.3956 19.9333 79.2289 18.3C80.0622 16.65 81.2289 15.3333 82.7289 14.35C84.2289 13.3667 85.9789 12.875 87.9789 12.875C89.2622 12.875 90.3872 13.0833 91.3539 13.5C92.3206 13.9 93.1039 14.3833 93.7039 14.95C94.3039 15.5 94.7206 16.0083 94.9539 16.475V13.475H102.504V34H95.0289ZM85.4289 23.75C85.4289 24.6833 85.6456 25.525 86.0789 26.275C86.5122 27.0083 87.0872 27.5833 87.8039 28C88.5372 28.4167 89.3456 28.625 90.2289 28.625C91.1456 28.625 91.9539 28.4167 92.6539 28C93.3539 27.5833 93.9039 27.0083 94.3039 26.275C94.7206 25.525 94.9289 24.6833 94.9289 23.75C94.9289 22.8167 94.7206 21.9833 94.3039 21.25C93.9039 20.5 93.3539 19.9167 92.6539 19.5C91.9539 19.0667 91.1456 18.85 90.2289 18.85C89.3456 18.85 88.5372 19.0667 87.8039 19.5C87.0872 19.9167 86.5122 20.5 86.0789 21.25C85.6456 21.9833 85.4289 22.8167 85.4289 23.75ZM136.233 15.55H153.058V17.65C153.058 20.0167 152.658 22.225 151.858 24.275C151.074 26.325 149.949 28.125 148.483 29.675C147.016 31.225 145.266 32.4333 143.233 33.3C141.199 34.1667 138.949 34.6 136.483 34.6C133.933 34.6 131.616 34.1667 129.533 33.3C127.466 32.4167 125.683 31.1917 124.183 29.625C122.683 28.0583 121.533 26.2417 120.733 24.175C119.933 22.0917 119.533 19.8583 119.533 17.475C119.533 15.1083 119.933 12.8917 120.733 10.825C121.533 8.74167 122.683 6.925 124.183 5.375C125.683 3.80833 127.466 2.59167 129.533 1.725C131.616 0.841665 133.933 0.399997 136.483 0.399997C138.566 0.399997 140.399 0.624998 141.983 1.075C143.583 1.525 144.958 2.125 146.108 2.875C147.258 3.625 148.233 4.45 149.033 5.35C149.833 6.23333 150.499 7.1 151.033 7.95L143.933 11.3C143.249 10.25 142.316 9.33333 141.133 8.55C139.966 7.76667 138.416 7.375 136.483 7.375C135.133 7.375 133.891 7.64167 132.758 8.175C131.641 8.70833 130.674 9.44167 129.858 10.375C129.041 11.2917 128.408 12.3667 127.958 13.6C127.524 14.8167 127.308 16.1083 127.308 17.475C127.308 18.8583 127.524 20.1583 127.958 21.375C128.408 22.5917 129.041 23.6667 129.858 24.6C130.674 25.5333 131.641 26.2667 132.758 26.8C133.891 27.3167 135.133 27.575 136.483 27.575C137.666 27.575 138.741 27.425 139.708 27.125C140.674 26.825 141.508 26.3917 142.208 25.825C142.924 25.2583 143.483 24.5917 143.883 23.825C144.299 23.0417 144.549 22.1833 144.633 21.25H136.233V15.55ZM173.3 34V30.675C173.15 31.0083 172.767 31.4917 172.15 32.125C171.55 32.7583 170.75 33.3333 169.75 33.85C168.75 34.35 167.584 34.6 166.25 34.6C164.25 34.6 162.5 34.1167 161 33.15C159.5 32.1667 158.334 30.8583 157.5 29.225C156.667 27.575 156.25 25.75 156.25 23.75C156.25 21.75 156.667 19.9333 157.5 18.3C158.334 16.65 159.5 15.3333 161 14.35C162.5 13.3667 164.25 12.875 166.25 12.875C167.534 12.875 168.659 13.0833 169.625 13.5C170.592 13.9 171.375 14.3833 171.975 14.95C172.575 15.5 172.992 16.0083 173.225 16.475V13.475H180.775V34H173.3ZM163.7 23.75C163.7 24.6833 163.917 25.525 164.35 26.275C164.784 27.0083 165.359 27.5833 166.075 28C166.809 28.4167 167.617 28.625 168.5 28.625C169.417 28.625 170.225 28.4167 170.925 28C171.625 27.5833 172.175 27.0083 172.575 26.275C172.992 25.525 173.2 24.6833 173.2 23.75C173.2 22.8167 172.992 21.9833 172.575 21.25C172.175 20.5 171.625 19.9167 170.925 19.5C170.225 19.0667 169.417 18.85 168.5 18.85C167.617 18.85 166.809 19.0667 166.075 19.5C165.359 19.9167 164.784 20.5 164.35 21.25C163.917 21.9833 163.7 22.8167 163.7 23.75ZM213.823 12.875C215.373 12.875 216.74 13.2 217.923 13.85C219.106 14.4833 220.031 15.4667 220.698 16.8C221.381 18.1333 221.723 19.85 221.723 21.95V34H214.248V23.1C214.248 21.6667 214.031 20.5083 213.598 19.625C213.165 18.7417 212.306 18.3 211.023 18.3C210.256 18.3 209.581 18.5 208.998 18.9C208.415 19.3 207.965 19.8583 207.648 20.575C207.331 21.275 207.173 22.1167 207.173 23.1V34H200.198V23.1C200.198 21.6667 199.956 20.5083 199.473 19.625C199.006 18.7417 198.173 18.3 196.973 18.3C196.206 18.3 195.531 18.5 194.948 18.9C194.365 19.2833 193.915 19.8333 193.598 20.55C193.298 21.25 193.148 22.1 193.148 23.1V34H185.598V13.475H193.148V16.4C193.348 15.8833 193.781 15.3583 194.448 14.825C195.131 14.275 195.973 13.8167 196.973 13.45C197.973 13.0667 199.031 12.875 200.148 12.875C201.365 12.875 202.381 13.0583 203.198 13.425C204.015 13.775 204.681 14.25 205.198 14.85C205.731 15.45 206.156 16.1 206.473 16.8C206.706 16.2 207.165 15.6 207.848 15C208.548 14.3833 209.415 13.875 210.448 13.475C211.498 13.075 212.623 12.875 213.823 12.875ZM232.175 25.35C232.225 26.0833 232.459 26.7333 232.875 27.3C233.292 27.8667 233.867 28.3167 234.6 28.65C235.35 28.9667 236.234 29.125 237.25 29.125C238.217 29.125 239.084 29.025 239.85 28.825C240.634 28.625 241.309 28.375 241.875 28.075C242.459 27.775 242.909 27.4667 243.225 27.15L246.175 31.85C245.759 32.3 245.167 32.7417 244.4 33.175C243.65 33.5917 242.659 33.9333 241.425 34.2C240.192 34.4667 238.634 34.6 236.75 34.6C234.484 34.6 232.467 34.175 230.7 33.325C228.934 32.475 227.542 31.225 226.525 29.575C225.509 27.925 225 25.9083 225 23.525C225 21.525 225.434 19.725 226.3 18.125C227.184 16.5083 228.459 15.2333 230.125 14.3C231.792 13.35 233.8 12.875 236.15 12.875C238.384 12.875 240.317 13.2833 241.95 14.1C243.6 14.9167 244.867 16.1333 245.75 17.75C246.65 19.35 247.1 21.35 247.1 23.75C247.1 23.8833 247.092 24.15 247.075 24.55C247.075 24.95 247.059 25.2167 247.025 25.35H232.175ZM239.95 21.375C239.934 20.8417 239.792 20.3167 239.525 19.8C239.259 19.2667 238.859 18.8333 238.325 18.5C237.792 18.15 237.109 17.975 236.275 17.975C235.442 17.975 234.734 18.1417 234.15 18.475C233.584 18.7917 233.15 19.2083 232.85 19.725C232.55 20.2417 232.384 20.7917 232.35 21.375H239.95Z" fill="#6DFCAF"/>
</svg>
