<svg width="24" height="24" viewBox="0 0 24 24" fill="none" xmlns="http://www.w3.org/2000/svg">
<mask id="path-1-outside-1_2467_160" maskUnits="userSpaceOnUse" x="0" y="11" width="20" height="10" fill="black">
<rect fill="white" y="11" width="20" height="10"/>
<path d="M18 19V17C18 15.9391 17.5786 14.9217 16.8284 14.1716C16.0783 13.4214 15.0609 13 14 13H6C4.93913 13 3.92172 13.4214 3.17157 14.1716C2.42143 14.9217 2 15.9391 2 17V19"/>
</mask>
<path d="M18 19V17C18 15.9391 17.5786 14.9217 16.8284 14.1716C16.0783 13.4214 15.0609 13 14 13H6C4.93913 13 3.92172 13.4214 3.17157 14.1716C2.42143 14.9217 2 15.9391 2 17V19" fill="white"/>
<path d="M16 19C16 20.1046 16.8954 21 18 21C19.1046 21 20 20.1046 20 19H16ZM14 13V11V13ZM6 13L6 11L6 13ZM2 17H0H2ZM0 19C0 20.1046 0.895431 21 2 21C3.10457 21 4 20.1046 4 19H0ZM20 19V17H16V19H20ZM20 17C20 15.4087 19.3679 13.8826 18.2426 12.7574L15.4142 15.5858C15.7893 15.9609 16 16.4696 16 17H20ZM18.2426 12.7574C17.1174 11.6321 15.5913 11 14 11L14 15C14.5304 15 15.0391 15.2107 15.4142 15.5858L18.2426 12.7574ZM14 11H6V15H14V11ZM6 11C4.4087 11 2.88258 11.6321 1.75736 12.7574L4.58579 15.5858C4.96086 15.2107 5.46957 15 6 15L6 11ZM1.75736 12.7574C0.632141 13.8826 0 15.4087 0 17H4C4 16.4696 4.21071 15.9609 4.58579 15.5858L1.75736 12.7574ZM0 17V19H4V17H0Z" fill="white" mask="url(#path-1-outside-1_2467_160)"/>
<path d="M16 19C16 20.1046 16.8954 21 18 21C19.1046 21 20 20.1046 20 19H16ZM14 13V11V13ZM6 13L6 11L6 13ZM2 17H0H2ZM0 19C0 20.1046 0.895431 21 2 21C3.10457 21 4 20.1046 4 19H0ZM20 19V17H16V19H20ZM20 17C20 15.4087 19.3679 13.8826 18.2426 12.7574L15.4142 15.5858C15.7893 15.9609 16 16.4696 16 17H20ZM18.2426 12.7574C17.1174 11.6321 15.5913 11 14 11L14 15C14.5304 15 15.0391 15.2107 15.4142 15.5858L18.2426 12.7574ZM14 11H6V15H14V11ZM6 11C4.4087 11 2.88258 11.6321 1.75736 12.7574L4.58579 15.5858C4.96086 15.2107 5.46957 15 6 15L6 11ZM1.75736 12.7574C0.632141 13.8826 0 15.4087 0 17H4C4 16.4696 4.21071 15.9609 4.58579 15.5858L1.75736 12.7574ZM0 17V19H4V17H0Z" fill="white" fill-opacity="0.2" mask="url(#path-1-outside-1_2467_160)"/>
<path d="M10 9C12.2091 9 14 7.20914 14 5C14 2.79086 12.2091 1 10 1C7.79086 1 6 2.79086 6 5C6 7.20914 7.79086 9 10 9Z" fill="white" stroke="white" stroke-width="2" stroke-linecap="round" stroke-linejoin="round"/>
<path d="M24 19V17C23.9993 16.1137 23.7044 15.2528 23.1614 14.5523C22.6184 13.8519 21.8581 13.3516 21 13.13" stroke="white" stroke-width="2" stroke-linecap="round" stroke-linejoin="round"/>
<path d="M17 1.13C17.8604 1.35031 18.623 1.85071 19.1676 2.55232C19.7122 3.25392 20.0078 4.11683 20.0078 5.005C20.0078 5.89318 19.7122 6.75608 19.1676 7.45769C18.623 8.1593 17.8604 8.6597 17 8.88" stroke="white" stroke-width="2" stroke-linecap="round" stroke-linejoin="round"/>
<line x1="2" y1="19.5" x2="18" y2="19.5" stroke="white"/>
<line x1="2" y1="20.5" x2="18" y2="20.5" stroke="white"/>
</svg>
