<svg width="69" height="69" viewBox="0 0 69 69" fill="none" xmlns="http://www.w3.org/2000/svg">
<rect width="69" height="69" rx="30" fill="#D9D9D9" fill-opacity="0.2"/>
<path d="M48.6826 50.4167V46.9484C48.6826 45.1087 47.9517 43.3444 46.6509 42.0436C45.3501 40.7427 43.5857 40.0119 41.746 40.0119H27.873C26.0334 40.0119 24.269 40.7427 22.9682 42.0436C21.6673 43.3444 20.9365 45.1087 20.9365 46.9484V50.4167" stroke="black" stroke-width="2" stroke-linecap="round" stroke-linejoin="round"/>
<path d="M34.8096 33.0754C38.6405 33.0754 41.7461 29.9698 41.7461 26.1389C41.7461 22.308 38.6405 19.2024 34.8096 19.2024C30.9786 19.2024 27.873 22.308 27.873 26.1389C27.873 29.9698 30.9786 33.0754 34.8096 33.0754Z" stroke="black" stroke-width="2" stroke-linecap="round" stroke-linejoin="round"/>
<path d="M48.6826 50.4167V46.9484C48.6826 45.1087 47.9517 43.3444 46.6509 42.0436C45.3501 40.7427 43.5857 40.0119 41.746 40.0119H27.873C26.0334 40.0119 24.269 40.7427 22.9682 42.0436C21.6673 43.3444 20.9365 45.1087 20.9365 46.9484V50.4167" stroke="white" stroke-opacity="0.7" stroke-width="2" stroke-linecap="round" stroke-linejoin="round"/>
<path d="M34.8096 33.0754C38.6405 33.0754 41.7461 29.9698 41.7461 26.1389C41.7461 22.308 38.6405 19.2024 34.8096 19.2024C30.9786 19.2024 27.873 22.308 27.873 26.1389C27.873 29.9698 30.9786 33.0754 34.8096 33.0754Z" stroke="white" stroke-opacity="0.7" stroke-width="2" stroke-linecap="round" stroke-linejoin="round"/>
</svg>
